<svg id="visual" viewBox="0 0 900 600" width="900" height="600" xmlns="http://www.w3.org/2000/svg" xmlns:xlink="http://www.w3.org/1999/xlink" version="1.1"><path d="M0 151L12.5 140C25 129 50 107 75 93C100 79 125 73 150 73C175 73 200 79 225 89C250 99 275 113 300 121C325 129 350 131 375 120C400 109 425 85 450 87C475 89 500 117 525 119C550 121 575 97 600 93C625 89 650 105 675 110C700 115 725 109 750 116C775 123 800 143 825 147C850 151 875 139 887.5 133L900 127L900 0L887.5 0C875 0 850 0 825 0C800 0 775 0 750 0C725 0 700 0 675 0C650 0 625 0 600 0C575 0 550 0 525 0C500 0 475 0 450 0C425 0 400 0 375 0C350 0 325 0 300 0C275 0 250 0 225 0C200 0 175 0 150 0C125 0 100 0 75 0C50 0 25 0 12.5 0L0 0Z" fill="#aa8bf0"></path><path d="M0 307L12.5 308C25 309 50 311 75 324C100 337 125 361 150 360C175 359 200 333 225 328C250 323 275 339 300 327C325 315 350 275 375 252C400 229 425 223 450 244C475 265 500 313 525 325C550 337 575 313 600 286C625 259 650 229 675 230C700 231 725 263 750 294C775 325 800 355 825 350C850 345 875 305 887.5 285L900 265L900 125L887.5 131C875 137 850 149 825 145C800 141 775 121 750 114C725 107 700 113 675 108C650 103 625 87 600 91C575 95 550 119 525 117C500 115 475 87 450 85C425 83 400 107 375 118C350 129 325 127 300 119C275 111 250 97 225 87C200 77 175 71 150 71C125 71 100 77 75 91C50 105 25 127 12.5 138L0 149Z" fill="#9671eb"></path><path d="M0 433L12.5 431C25 429 50 425 75 424C100 423 125 425 150 426C175 427 200 427 225 431C250 435 275 443 300 429C325 415 350 379 375 348C400 317 425 291 450 301C475 311 500 357 525 372C550 387 575 371 600 357C625 343 650 331 675 339C700 347 725 375 750 393C775 411 800 419 825 409C850 399 875 371 887.5 357L900 343L900 263L887.5 283C875 303 850 343 825 348C800 353 775 323 750 292C725 261 700 229 675 228C650 227 625 257 600 284C575 311 550 335 525 323C500 311 475 263 450 242C425 221 400 227 375 250C350 273 325 313 300 325C275 337 250 321 225 326C200 331 175 357 150 358C125 359 100 335 75 322C50 309 25 307 12.5 306L0 305Z" fill="#8257e5"></path><path d="M0 553L12.5 550C25 547 50 541 75 539C100 537 125 539 150 540C175 541 200 541 225 542C250 543 275 545 300 546C325 547 350 547 375 548C400 549 425 551 450 554C475 557 500 561 525 555C550 549 575 533 600 523C625 513 650 509 675 507C700 505 725 505 750 508C775 511 800 517 825 522C850 527 875 531 887.5 533L900 535L900 341L887.5 355C875 369 850 397 825 407C800 417 775 409 750 391C725 373 700 345 675 337C650 329 625 341 600 355C575 369 550 385 525 370C500 355 475 309 450 299C425 289 400 315 375 346C350 377 325 413 300 427C275 441 250 433 225 429C200 425 175 425 150 424C125 423 100 421 75 422C50 423 25 427 12.5 429L0 431Z" fill="#7049c8"></path><path d="M0 601L12.5 601C25 601 50 601 75 601C100 601 125 601 150 601C175 601 200 601 225 601C250 601 275 601 300 601C325 601 350 601 375 601C400 601 425 601 450 601C475 601 500 601 525 601C550 601 575 601 600 601C625 601 650 601 675 601C700 601 725 601 750 601C775 601 800 601 825 601C850 601 875 601 887.5 601L900 601L900 533L887.5 531C875 529 850 525 825 520C800 515 775 509 750 506C725 503 700 503 675 505C650 507 625 511 600 521C575 531 550 547 525 553C500 559 475 555 450 552C425 549 400 547 375 546C350 545 325 545 300 544C275 543 250 541 225 540C200 539 175 539 150 538C125 537 100 535 75 537C50 539 25 545 12.5 548L0 551Z" fill="#5e3cac"></path></svg>